<?xml version="1.0" standalone="no"?>
<!DOCTYPE svg PUBLIC "-//W3C//DTD SVG 20010904//EN"
 "http://www.w3.org/TR/2001/REC-SVG-20010904/DTD/svg10.dtd">
<svg version="1.0" xmlns="http://www.w3.org/2000/svg"
 width="260.000000pt" height="260.000000pt" viewBox="0 0 260.000000 260.000000"
 preserveAspectRatio="xMidYMid meet">
<metadata>
Created by potrace 1.14, written by Peter Selinger 2001-2017
</metadata>
<g transform="translate(0.000000,260.000000) scale(0.100000,-0.100000)"
fill="#000000" stroke="none">
<path d="M234 2376 l-34 -34 0 -1047 0 -1047 34 -34 34 -34 1047 0 1047 0 34
34 34 34 0 1047 0 1047 -34 34 -34 34 -1047 0 -1047 0 -34 -34z m996 -301 l0
-65 -240 0 -240 0 0 -205 0 -205 200 0 200 0 0 -65 0 -65 -200 0 -200 0 0
-270 0 -270 280 0 280 0 0 -65 0 -65 -480 0 -480 0 0 670 0 670 440 0 440 0 0
-65z m1140 0 l0 -65 -165 0 -165 0 0 -605 0 -605 -210 0 -210 0 0 605 0 605
-165 0 -165 0 0 65 0 65 540 0 540 0 0 -65z m-1882 -1431 c15 -11 22 -25 22
-50 0 -45 -29 -74 -75 -74 -35 0 -35 0 -35 -45 0 -45 0 -45 -35 -45 l-35 0 0
115 0 115 68 0 c45 0 75 -5 90 -16z m200 0 c28 -19 30 -69 3 -86 -16 -10 -17
-14 -6 -22 7 -6 18 -32 23 -58 l10 -48 -39 0 -39 0 0 43 c0 40 -13 67 -32 67
-4 0 -8 -25 -8 -55 l0 -55 -35 0 -35 0 0 115 0 115 68 0 c45 0 75 -5 90 -16z
m213 -13 c25 -26 29 -37 29 -86 0 -49 -4 -60 -29 -86 -23 -23 -38 -29 -71 -29
-33 0 -48 6 -71 29 -25 26 -29 37 -29 86 0 49 4 60 29 86 23 23 38 29 71 29
33 0 48 -6 71 -29z m223 3 c26 -26 32 -49 28 -109 -5 -70 -39 -95 -132 -95
l-60 0 0 115 0 115 69 0 c60 0 71 -3 95 -26z m126 -53 c0 -91 12 -131 37 -131
41 1 48 16 51 115 2 52 8 95 13 95 5 0 9 -43 9 -95 0 -84 -2 -96 -22 -115 -27
-25 -93 -27 -126 -4 -20 14 -22 23 -22 115 l0 99 30 0 30 0 0 -79z m291 58
c21 -21 22 -50 2 -56 -6 -2 -13 6 -15 18 -5 34 -34 48 -55 27 -26 -27 -30
-127 -6 -157 26 -31 61 -21 70 20 7 35 33 39 33 5 0 -35 -44 -66 -92 -66 -30
0 -46 7 -69 29 -25 25 -29 37 -29 81 0 46 4 56 34 86 41 41 93 47 127 13z
m219 11 c0 -5 -13 -10 -30 -10 l-30 0 0 -105 0 -105 -35 0 -35 0 0 105 0 105
-25 0 c-14 0 -25 5 -25 10 0 6 37 10 90 10 53 0 90 -4 90 -10z m80 -105 l0
-115 -35 0 -35 0 0 115 0 115 35 0 35 0 0 -115z m201 86 c25 -26 29 -37 29
-86 0 -49 -4 -60 -29 -86 -23 -23 -38 -29 -71 -29 -33 0 -48 6 -71 29 -25 26
-29 37 -29 86 0 49 4 60 29 86 23 23 38 29 71 29 33 0 48 -6 71 -29z m146 -43
l48 -71 3 71 c2 55 6 72 17 72 12 0 15 -21 15 -115 l0 -115 -29 0 c-26 0 -35
9 -75 73 l-46 72 0 -72 c0 -42 -4 -73 -10 -73 -6 0 -10 45 -10 115 0 108 1
115 20 115 14 0 35 -23 67 -72z"/>
<path d="M400 590 c0 -44 3 -51 18 -48 25 5 25 91 0 96 -15 3 -18 -4 -18 -48z"/>
<path d="M600 600 c0 -34 3 -41 18 -38 12 2 17 13 17 38 0 25 -5 36 -17 38
-15 3 -18 -4 -18 -38z"/>
<path d="M810 621 c-15 -29 -12 -134 4 -156 12 -16 16 -17 30 -6 20 17 23 150
4 169 -17 17 -26 15 -38 -7z"/>
<path d="M1030 545 c0 -71 3 -95 13 -95 27 0 37 25 37 95 0 70 -10 95 -37 95
-10 0 -13 -24 -13 -95z"/>
<path d="M1950 621 c-15 -29 -12 -134 4 -156 12 -16 16 -17 30 -6 20 17 23
150 4 169 -17 17 -26 15 -38 -7z"/>
</g>
</svg>
